<svg xmlns="http://www.w3.org/2000/svg" fill="currentColor" viewBox="0 0 24 24"><path d="M12.026 2.269c3.2 0 3.584.012 4.849.07 1.17.054 1.805.249 2.227.415.56.217.96.477 1.382.896.419.42.679.819.896 1.381.164.422.36 1.057.413 2.227.058 1.265.069 1.645.069 4.849 0 3.205-.012 3.584-.069 4.849-.053 1.17-.249 1.805-.413 2.228-.217.56-.477.96-.896 1.381-.419.419-.819.679-1.381.896-.422.164-1.057.36-2.227.413-1.265.058-1.645.069-4.849.069-3.204 0-3.584-.012-4.849-.069-1.17-.053-1.805-.249-2.228-.413a3.717 3.717 0 0 1-1.38-.896 3.717 3.717 0 0 1-.897-1.381c-.164-.422-.36-1.057-.413-2.228-.058-1.265-.069-1.644-.069-4.849 0-3.204.012-3.584.069-4.849.053-1.17.249-1.805.413-2.227.217-.56.477-.96.896-1.382.419-.419.819-.679 1.381-.896.422-.164 1.057-.36 2.227-.413 1.265-.058 1.645-.069 4.849-.069L12.026 2.269zm0-2.269C8.741 0 8.332.014 7.052.072 5.775.131 4.903.333 4.14.63c-.789.306-1.459.717-2.126 1.384S.936 3.35.63 4.14C.333 4.903.131 5.775.072 7.052.014 8.332 0 8.741 0 12.026c0 3.285.014 3.694.072 4.973.059 1.277.261 2.149.558 2.913.306.788.717 1.459 1.384 2.126.667.666 1.336 1.079 2.126 1.384.766.296 1.636.499 2.913.558C8.332 23.986 8.741 24 12.026 24c3.285 0 3.694-.014 4.973-.072 1.277-.059 2.149-.262 2.913-.558.788-.306 1.459-.718 2.126-1.384.666-.667 1.079-1.335 1.384-2.126.296-.764.499-1.636.558-2.913.058-1.279.072-1.688.072-4.973 0-3.285-.014-3.694-.072-4.973-.059-1.277-.262-2.149-.558-2.913-.305-.789-.718-1.459-1.384-2.126C21.319 1.347 20.651.935 19.86.63c-.764-.297-1.636-.499-2.913-.558C15.668.014 15.259 0 11.974 0h.052zm0 5.838a6.188 6.188 0 1 0 0 12.376 6.188 6.188 0 0 0 0-12.376zM12.026 16a4 4 0 1 1 0-8 4 4 0 0 1 0 8zm6.406-11.845a1.44 1.44 0 1 0 0 2.881 1.44 1.44 0 0 0 0-2.881z"/></svg>